<svg width="24" height="24" viewBox="0 0 24 24" fill="none" xmlns="http://www.w3.org/2000/svg">
<mask id="mask0_18847_15709" style="mask-type:alpha" maskUnits="userSpaceOnUse" x="0" y="0" width="24" height="24">
<rect width="24" height="24" fill="#D9D9D9"/>
</mask>
<g mask="url(#mask0_18847_15709)">
<path d="M3.15234 7.04642V5.67317C3.15234 5.24351 3.30068 4.88034 3.59734 4.58367C3.89401 4.28701 4.25709 4.13867 4.68659 4.13867H19.3106C19.7401 4.13867 20.1032 4.28701 20.3998 4.58367C20.6965 4.88034 20.8448 5.24351 20.8448 5.67317V7.04642H19.9216V5.67717C19.9216 5.49767 19.8639 5.35017 19.7486 5.23467C19.6333 5.11934 19.4858 5.06167 19.3063 5.06167H4.69084C4.51134 5.06167 4.36393 5.11934 4.24859 5.23467C4.13326 5.35017 4.07559 5.49767 4.07559 5.67717V7.04642H3.15234ZM9.09084 19.8617V17.8772H4.69084C4.25851 17.8772 3.89401 17.7288 3.59734 17.4322C3.30068 17.1355 3.15234 16.7723 3.15234 16.3427V14.9694H4.07559V16.3387C4.07559 16.5182 4.13326 16.6656 4.24859 16.7809C4.36393 16.8963 4.51134 16.9539 4.69084 16.9539H19.3063C19.4858 16.9539 19.6333 16.8963 19.7486 16.7809C19.8639 16.6656 19.9216 16.5182 19.9216 16.3387V14.9694H20.8448V16.3427C20.8448 16.7723 20.6965 17.1355 20.3998 17.4322C20.1032 17.7288 19.7387 17.8772 19.3063 17.8772H14.9063V19.8617H9.09084ZM4.46009 11.0157L7.04184 8.43392L6.38309 7.78467L3.15234 11.0157L6.38309 14.2464L7.04184 13.5877L4.46009 11.0157ZM19.5371 11.0157L16.9648 13.5877L17.6141 14.2464L20.8448 11.0157L17.6141 7.78467L16.9648 8.43392L19.5371 11.0157Z" fill="white"/>
</g>
</svg>
