<svg width="24" height="24" viewBox="0 0 24 24" fill="none" xmlns="http://www.w3.org/2000/svg">
<mask id="mask0_18847_15691" style="mask-type:alpha" maskUnits="userSpaceOnUse" x="0" y="0" width="24" height="24">
<rect width="24" height="24" fill="#D9D9D9"/>
</mask>
<g mask="url(#mask0_18847_15691)">
<path d="M9.15234 11.7758L11.4188 9.51604L9.36784 7.47179L8.17934 8.66029L7.53034 8.01129L8.71584 6.82279L6.69959 4.79404L4.43984 7.05354L9.15234 11.7758ZM16.9256 19.5363L19.1851 17.2768L17.1841 15.2785L15.9956 16.4643L15.3341 15.8028L16.5198 14.6143L14.4948 12.592L12.2381 14.8488L16.9256 19.5363ZM7.25734 19.846H4.15234V16.7535L8.49759 12.4085L3.15234 7.05354L6.71484 3.51904L12.0766 8.87679L16.4976 4.43729C16.5931 4.34179 16.6978 4.27063 16.8116 4.22379C16.9254 4.17696 17.0464 4.15354 17.1746 4.15354C17.2964 4.15354 17.4147 4.17696 17.5293 4.22379C17.6442 4.27063 17.7525 4.34179 17.8543 4.43729L19.5611 6.19504C19.6566 6.29688 19.7245 6.40471 19.7648 6.51854C19.8053 6.63238 19.8256 6.75013 19.8256 6.87179C19.8256 7.00013 19.8053 7.11954 19.7648 7.23004C19.7245 7.34071 19.6566 7.44379 19.5611 7.53929L15.1658 11.9468L20.4793 17.2835L16.9448 20.846L11.5928 15.5133L7.25734 19.846ZM5.07559 18.9228H6.86109L16.4496 9.32779L14.6706 7.54879L5.07559 17.1498V18.9228ZM15.5678 8.42379L14.6706 7.54879L16.4496 9.32779L15.5678 8.42379Z" fill="white"/>
</g>
</svg>
