<svg width="24" height="24" viewBox="0 0 24 24" fill="none" xmlns="http://www.w3.org/2000/svg">
<mask id="mask0_18848_15718" style="mask-type:alpha" maskUnits="userSpaceOnUse" x="0" y="0" width="24" height="24">
<rect width="24" height="24" fill="#D9D9D9"/>
</mask>
<g mask="url(#mask0_18848_15718)">
<path d="M9.61372 14.8309L10.2752 14.1664L8.10872 12.0002L10.253 9.85592L9.59147 9.19142L6.78272 12.0002L9.61372 14.8309ZM14.3827 14.8309L17.2137 12.0002L14.3827 9.16942L13.7212 9.82417L15.8972 12.0002L13.7212 14.1664L14.3827 14.8309ZM5.67047 19.8617C5.2413 19.8617 4.87839 19.7133 4.58172 19.4167C4.28505 19.12 4.13672 18.7571 4.13672 18.3279V5.67242C4.13672 5.24326 4.28505 4.88034 4.58172 4.58367C4.87839 4.28701 5.2413 4.13867 5.67047 4.13867H18.326C18.7551 4.13867 19.1181 4.28701 19.4147 4.58367C19.7114 4.88034 19.8597 5.24326 19.8597 5.67242V18.3279C19.8597 18.7571 19.7114 19.12 19.4147 19.4167C19.1181 19.7133 18.7551 19.8617 18.326 19.8617H5.67047ZM5.67522 18.9387H18.3212C18.4751 18.9387 18.6161 18.8746 18.7445 18.7464C18.8726 18.6181 18.9367 18.477 18.9367 18.3232V5.67717C18.9367 5.52334 18.8726 5.38226 18.7445 5.25392C18.6161 5.12576 18.4751 5.06167 18.3212 5.06167H5.67522C5.52139 5.06167 5.3803 5.12576 5.25197 5.25392C5.1238 5.38226 5.05972 5.52334 5.05972 5.67717V18.3232C5.05972 18.477 5.1238 18.6181 5.25197 18.7464C5.3803 18.8746 5.52139 18.9387 5.67522 18.9387Z" fill="white"/>
</g>
</svg>
