<svg width="24" height="24" viewBox="0 0 24 24" fill="none" xmlns="http://www.w3.org/2000/svg">
<mask id="mask0_18849_15739" style="mask-type:alpha" maskUnits="userSpaceOnUse" x="0" y="0" width="24" height="24">
<rect width="24" height="24" fill="#D9D9D9"/>
</mask>
<g mask="url(#mask0_18849_15739)">
<path d="M19.0033 20.4385C18.4159 20.4385 17.8977 20.251 17.4487 19.876C16.9997 19.501 16.7177 19.0219 16.6027 18.4385H11.001C10.0503 18.4385 9.23958 18.1029 8.56875 17.4315C7.89792 16.7602 7.5625 15.9488 7.5625 14.9973C7.5625 14.0459 7.89792 13.2354 8.56875 12.5658C9.23958 11.8963 10.0503 11.5615 11.001 11.5615H13.001C13.7055 11.5615 14.3085 11.3109 14.81 10.8095C15.3117 10.3082 15.5625 9.70544 15.5625 9.00127C15.5625 8.29727 15.3117 7.69411 14.81 7.19177C14.3085 6.68961 13.7055 6.43852 13.001 6.43852H7.398C7.282 7.02186 7 7.50102 6.552 7.87602C6.104 8.25102 5.58642 8.43852 4.99925 8.43852C4.31958 8.43852 3.74358 8.20194 3.27125 7.72877C2.79875 7.25544 2.5625 6.67969 2.5625 6.00152C2.5625 5.32336 2.79933 4.74719 3.273 4.27302C3.74683 3.79869 4.32208 3.56152 4.99875 3.56152C5.58592 3.56152 6.103 3.74902 6.55 4.12402C6.99717 4.49902 7.28042 4.97819 7.39975 5.56152H13.001C13.9517 5.56152 14.7624 5.89719 15.4332 6.56852C16.1041 7.23986 16.4395 8.05127 16.4395 9.00277C16.4395 9.95411 16.1041 10.7646 15.4332 11.4343C14.7624 12.1038 13.9517 12.4385 13.001 12.4385H11.001C10.2965 12.4385 9.6935 12.6892 9.192 13.1905C8.69033 13.6919 8.4395 14.2946 8.4395 14.9988C8.4395 15.7028 8.69033 16.3059 9.192 16.8083C9.6935 17.3104 10.2965 17.5615 11.001 17.5615H16.604C16.72 16.9782 17.002 16.499 17.45 16.124C17.898 15.749 18.4156 15.5615 19.0028 15.5615C19.6824 15.5615 20.2584 15.7981 20.7307 16.2713C21.2032 16.7446 21.4395 17.3204 21.4395 17.9985C21.4395 18.6767 21.2027 19.2529 20.729 19.727C20.2552 20.2014 19.6799 20.4385 19.0033 20.4385ZM5.001 7.51552C5.419 7.51552 5.77608 7.36744 6.07225 7.07127C6.36842 6.77511 6.5165 6.41802 6.5165 6.00002C6.5165 5.58202 6.36842 5.22494 6.07225 4.92877C5.77608 4.63261 5.419 4.48452 5.001 4.48452C4.583 4.48452 4.22592 4.63261 3.92975 4.92877C3.63358 5.22494 3.4855 5.58202 3.4855 6.00002C3.4855 6.41802 3.63358 6.77511 3.92975 7.07127C4.22592 7.36744 4.583 7.51552 5.001 7.51552Z" fill="white"/>
</g>
</svg>
