<svg width="24" height="24" viewBox="0 0 24 24" fill="none" xmlns="http://www.w3.org/2000/svg">
<mask id="mask0_18854_15785" style="mask-type:alpha" maskUnits="userSpaceOnUse" x="0" y="0" width="24" height="24">
<rect width="24" height="24" fill="#D9D9D9"/>
</mask>
<g mask="url(#mask0_18854_15785)">
<path d="M5.67522 19.8617C5.24889 19.8617 4.88589 19.7118 4.58622 19.4122C4.28655 19.1125 4.13672 18.7495 4.13672 18.3232V7.07718C4.13672 6.97118 4.14805 6.87068 4.17072 6.77568C4.19355 6.68052 4.2373 6.59768 4.30197 6.52718L5.64822 4.93468C5.71289 4.85135 5.78955 4.78635 5.87822 4.73968C5.96672 4.69285 6.06572 4.66943 6.17522 4.66943H17.8212C17.9307 4.66943 18.0297 4.69285 18.1182 4.73968C18.2069 4.78635 18.2836 4.85135 18.3482 4.93468L19.6945 6.52718C19.7591 6.59768 19.8029 6.68052 19.8257 6.77568C19.8484 6.87068 19.8597 6.97118 19.8597 7.07718V18.3232C19.8597 18.7495 19.7099 19.1125 19.4102 19.4122C19.1106 19.7118 18.7476 19.8617 18.3212 19.8617H5.67522ZM5.45972 6.59243H18.5367L17.7067 5.59243H6.28972L5.45972 6.59243ZM5.67522 18.9387H18.3212C18.5007 18.9387 18.6482 18.881 18.7637 18.7657C18.8791 18.6502 18.9367 18.5027 18.9367 18.3232V7.51568H5.05972V18.3232C5.05972 18.5027 5.11739 18.6502 5.23272 18.7657C5.34822 18.881 5.49572 18.9387 5.67522 18.9387ZM14.5327 16.1964L17.2752 13.4539L14.5327 10.7117L13.8722 11.3722L15.9445 13.4539L13.8597 15.5387L14.5327 16.1964ZM9.51372 16.2272L10.1837 15.5569L8.10197 13.4847L10.1867 11.4002L9.51372 10.7424L6.77122 13.4847L9.51372 16.2272Z" fill="white"/>
</g>
</svg>
