<svg width="24" height="24" viewBox="0 0 24 24" fill="none" xmlns="http://www.w3.org/2000/svg">
<mask id="mask0_18849_15758" style="mask-type:alpha" maskUnits="userSpaceOnUse" x="0" y="0" width="24" height="24">
<rect width="24" height="24" fill="#D9D9D9"/>
</mask>
<g mask="url(#mask0_18849_15758)">
<path d="M11.9982 21.1846V20.2616H18.3212C18.5007 20.2616 18.6482 20.2039 18.7637 20.0886C18.8791 19.9732 18.9367 19.8258 18.9367 19.6463V18.8616H15.952V12.8923H18.9367V11.0156C18.9367 9.09922 18.2589 7.46372 16.9032 6.10906C15.5476 4.75439 13.9109 4.07706 11.9932 4.07706C10.0754 4.07706 8.44039 4.75439 7.08822 6.10906C5.73589 7.46372 5.05972 9.09922 5.05972 11.0156V12.8923H8.04447V18.8616H5.67697C5.24347 18.8616 4.87839 18.7132 4.58172 18.4166C4.28505 18.1199 4.13672 17.7567 4.13672 17.3271V11.0223C4.13672 9.93114 4.34272 8.90856 4.75472 7.95456C5.16689 7.00056 5.72964 6.16756 6.44297 5.45556C7.1563 4.74372 7.98964 4.18214 8.94297 3.77081C9.89647 3.35948 10.9161 3.15381 12.0017 3.15381C13.0821 3.15381 14.0998 3.35956 15.055 3.77106C16.0103 4.18256 16.8443 4.74439 17.557 5.45656C18.2698 6.16889 18.8318 7.00181 19.243 7.95531C19.6541 8.90881 19.8597 9.92772 19.8597 11.0121V19.6486C19.8597 20.0792 19.7114 20.4429 19.4147 20.7396C19.1181 21.0362 18.7551 21.1846 18.326 21.1846H11.9982ZM5.67522 17.9386H7.12122V13.8156H5.05972V17.3231C5.05972 17.5026 5.11739 17.6501 5.23272 17.7656C5.34822 17.8809 5.49572 17.9386 5.67522 17.9386ZM16.8752 17.9386H18.9367V13.8156H16.8752V17.9386Z" fill="white"/>
</g>
</svg>
