<svg width="160" height="20" viewBox="0 0 160 20" fill="none" xmlns="http://www.w3.org/2000/svg">
<path d="M2.61445 0V0.0186069C2.52115 -0.011877 2.41096 0.00699408 2.33997 0.0770674C2.29101 0.125762 2.26343 0.194516 2.26343 0.264457C2.26343 0.333079 2.29101 0.401569 2.33997 0.450528C2.38998 0.499223 2.45742 0.528387 2.52736 0.528387C2.55705 0.528387 2.58634 0.52192 2.61445 0.511891V1.93645C2.587 1.92682 2.55797 1.92048 2.52736 1.92048C2.38088 1.92048 2.26343 2.03925 2.26343 2.18441C2.26343 2.33103 2.38088 2.44834 2.52736 2.44834C2.55797 2.44834 2.587 2.44214 2.61445 2.43251V3.09114C2.587 3.08138 2.55797 3.07517 2.52736 3.07517C2.38088 3.07517 2.26343 3.19276 2.26343 3.3391C2.26343 3.4844 2.38088 3.60303 2.52736 3.60303C2.55797 3.60303 2.587 3.5967 2.61445 3.58707V4.63051C2.52142 4.60016 2.41083 4.61916 2.33997 4.6891C2.29101 4.73938 2.26343 4.80668 2.26343 4.87649C2.26343 4.94525 2.29101 5.01387 2.33997 5.06256C2.38998 5.11139 2.45742 5.14042 2.52736 5.14042C2.55705 5.14042 2.58634 5.13396 2.61445 5.12393V5.14016H8.08716C8.08796 5.14016 8.08875 5.14042 8.08954 5.14042C8.09046 5.14042 8.09126 5.14016 8.09205 5.14016H8.1769V6.44978C8.14945 6.44001 8.12029 6.43381 8.08967 6.43381C7.94319 6.43381 7.82574 6.55126 7.82574 6.69642C7.82574 6.84277 7.94319 6.96167 8.08967 6.96167C8.12042 6.96167 8.14945 6.95533 8.1769 6.94557V7.82353C8.14945 7.8139 8.12029 7.80756 8.08967 7.80756C7.94319 7.80756 7.82574 7.9262 7.82574 8.07149C7.82574 8.21784 7.94319 8.33674 8.08967 8.33674C8.12042 8.33674 8.14945 8.33041 8.1769 8.32064V9.1986C8.14945 9.18897 8.12029 9.18263 8.08967 9.18263C7.94319 9.18263 7.82574 9.30127 7.82574 9.44656C7.82574 9.59291 7.94319 9.71049 8.08967 9.71049C8.12042 9.71049 8.14945 9.70429 8.1769 9.69453V10.5737C8.14945 10.564 8.12029 10.5577 8.08967 10.5577C7.94319 10.5577 7.82574 10.6763 7.82574 10.8216C7.82574 10.968 7.94319 11.0856 8.08967 11.0856C8.12042 11.0856 8.14945 11.0794 8.1769 11.0696V11.9487C8.14945 11.9391 8.12029 11.9328 8.08967 11.9328C7.94319 11.9328 7.82574 12.0514 7.82574 12.1967C7.82574 12.3431 7.94319 12.4606 8.08967 12.4606C8.12042 12.4606 8.14945 12.4544 8.1769 12.4447V13.3238C8.14945 13.3141 8.12029 13.3079 8.08967 13.3079C7.94319 13.3079 7.82574 13.4253 7.82574 13.5718C7.82574 13.7181 7.94319 13.8357 8.08967 13.8357C8.12042 13.8357 8.14945 13.8295 8.1769 13.8197V14.6989C8.14945 14.6891 8.12029 14.6829 8.08967 14.6829C7.94319 14.6829 7.82574 14.8004 7.82574 14.9469C7.82574 15.092 7.94319 15.2108 8.08967 15.2108C8.12042 15.2108 8.14945 15.2045 8.1769 15.1947V16.074C8.14945 16.0642 8.12029 16.058 8.08967 16.058C7.94319 16.058 7.82574 16.1754 7.82574 16.3219C7.82574 16.4671 7.94319 16.5859 8.08967 16.5859C8.12042 16.5859 8.14945 16.5795 8.1769 16.5698V17.449C8.14945 17.4393 8.12029 17.4331 8.08967 17.4331C7.94319 17.4331 7.82574 17.5507 7.82574 17.697C7.82574 17.8422 7.94319 17.9609 8.08967 17.9609C8.12042 17.9609 8.14945 17.9546 8.1769 17.9448V19.2828C8.0836 19.2523 7.97328 19.2712 7.90215 19.3413C7.85332 19.3901 7.82561 19.4587 7.82561 19.5287C7.82561 19.5973 7.85332 19.6659 7.90215 19.7147C7.95111 19.7636 8.0196 19.7926 8.08954 19.7926C8.11936 19.7926 8.14866 19.7863 8.17677 19.7761V19.7921H13.9954V5.14016H19.5304V0H2.61445Z" fill="#FCFCFC"/>
<path d="M0.018475 4.82861C0.00659816 4.8418 0 4.85883 0 4.87598C0 4.89327 0.00659743 4.91029 0.0197939 4.92217C0.0316707 4.9355 0.048827 4.94196 0.0659824 4.94196C0.0830058 4.94196 0.100292 4.93418 0.112169 4.92217C0.124046 4.91029 0.131965 4.89327 0.131965 4.87598C0.131965 4.85751 0.123914 4.84035 0.113357 4.82979C0.0885475 4.80498 0.0436803 4.80498 0.018475 4.82861Z" fill="#FCFCFC"/>
<path d="M0.0661044 2.25062C0.102546 2.25062 0.132087 2.22108 0.132087 2.18463C0.132087 2.14819 0.102546 2.11865 0.0661044 2.11865C0.0296634 2.11865 0.00012207 2.14819 0.00012207 2.18463C0.00012207 2.22108 0.0296634 2.25062 0.0661044 2.25062Z" fill="#FCFCFC"/>
<path d="M0.0661044 3.40491C0.102546 3.40491 0.132087 3.37537 0.132087 3.33893C0.132087 3.30249 0.102546 3.27295 0.0661044 3.27295C0.0296634 3.27295 0.00012207 3.30249 0.00012207 3.33893C0.00012207 3.37537 0.0296634 3.40491 0.0661044 3.40491Z" fill="#FCFCFC"/>
<path d="M0.019918 0.216904C0.00658955 0.2301 0.00012207 0.245936 0.00012207 0.264411C0.00012207 0.281435 0.00672023 0.297402 0.0185971 0.310599C0.0319255 0.322475 0.048949 0.330393 0.0661044 0.330393C0.0831279 0.330393 0.100416 0.322343 0.112293 0.310599C0.12417 0.298722 0.132087 0.281435 0.132087 0.264411C0.132087 0.245804 0.124038 0.228649 0.112293 0.218092C0.0885393 0.19315 0.0436716 0.19183 0.019918 0.216904Z" fill="#FCFCFC"/>
<path d="M5.58097 19.4828C5.5691 19.4948 5.5625 19.512 5.5625 19.5292C5.5625 19.5463 5.5691 19.5621 5.58216 19.5755C5.59404 19.5874 5.61119 19.5951 5.62848 19.5951C5.64564 19.5951 5.66279 19.5872 5.67467 19.5755C5.68787 19.5636 5.69446 19.5463 5.69446 19.5292C5.69446 19.5107 5.68773 19.4948 5.67467 19.4816C5.65092 19.4564 5.60605 19.4564 5.58097 19.4828Z" fill="#FCFCFC"/>
<path d="M5.62848 10.8878C5.66492 10.8878 5.69446 10.8583 5.69446 10.8218C5.69446 10.7854 5.66492 10.7559 5.62848 10.7559C5.59204 10.7559 5.5625 10.7854 5.5625 10.8218C5.5625 10.8583 5.59204 10.8878 5.62848 10.8878Z" fill="#FCFCFC"/>
<path d="M5.62848 8.00732C5.59153 8.00732 5.5625 8.03636 5.5625 8.07199C5.5625 8.1088 5.59153 8.13797 5.62848 8.13797C5.6653 8.13797 5.69446 8.1088 5.69446 8.07199C5.69446 8.03622 5.66543 8.00732 5.62848 8.00732Z" fill="#FCFCFC"/>
<path d="M5.62848 12.2628C5.66492 12.2628 5.69446 12.2333 5.69446 12.1968C5.69446 12.1604 5.66492 12.1309 5.62848 12.1309C5.59204 12.1309 5.5625 12.1604 5.5625 12.1968C5.5625 12.2333 5.59204 12.2628 5.62848 12.2628Z" fill="#FCFCFC"/>
<path d="M5.62848 9.51234C5.66492 9.51234 5.69446 9.48279 5.69446 9.44635C5.69446 9.40991 5.66492 9.38037 5.62848 9.38037C5.59204 9.38037 5.5625 9.40991 5.5625 9.44635C5.5625 9.48279 5.59204 9.51234 5.62848 9.51234Z" fill="#FCFCFC"/>
<path d="M5.62848 6.63086C5.59153 6.63086 5.5625 6.66121 5.5625 6.69816C5.5625 6.73379 5.59153 6.76415 5.62848 6.76415C5.6653 6.76415 5.69446 6.73379 5.69446 6.69816C5.69446 6.66108 5.66543 6.63086 5.62848 6.63086Z" fill="#FCFCFC"/>
<path d="M5.62848 16.3883C5.66492 16.3883 5.69446 16.3588 5.69446 16.3223C5.69446 16.2859 5.66492 16.2563 5.62848 16.2563C5.59204 16.2563 5.5625 16.2859 5.5625 16.3223C5.5625 16.3588 5.59204 16.3883 5.62848 16.3883Z" fill="#FCFCFC"/>
<path d="M5.62848 17.7628C5.66492 17.7628 5.69446 17.7333 5.69446 17.6968C5.69446 17.6604 5.66492 17.6309 5.62848 17.6309C5.59204 17.6309 5.5625 17.6604 5.5625 17.6968C5.5625 17.7333 5.59204 17.7628 5.62848 17.7628Z" fill="#FCFCFC"/>
<path d="M5.62848 15.0128C5.66492 15.0128 5.69446 14.9833 5.69446 14.9468C5.69446 14.9104 5.66492 14.8809 5.62848 14.8809C5.59204 14.8809 5.5625 14.9104 5.5625 14.9468C5.5625 14.9833 5.59204 15.0128 5.62848 15.0128Z" fill="#FCFCFC"/>
<path d="M5.62848 13.6378C5.66492 13.6378 5.69446 13.6083 5.69446 13.5718C5.69446 13.5354 5.66492 13.5059 5.62848 13.5059C5.59204 13.5059 5.5625 13.5354 5.5625 13.5718C5.5625 13.6083 5.59204 13.6378 5.62848 13.6378Z" fill="#FCFCFC"/>
<path d="M0.675966 4.78281C0.650893 4.80775 0.637695 4.84075 0.637695 4.87638C0.637695 4.91069 0.650893 4.94513 0.675966 4.96875C0.700908 4.99396 0.733898 5.00834 0.76966 5.00834C0.803971 5.00834 0.838281 4.99396 0.862035 4.96875C0.886976 4.945 0.901625 4.91069 0.901625 4.87638C0.901625 4.84075 0.887108 4.80775 0.862035 4.78281C0.813208 4.73385 0.724793 4.73385 0.675966 4.78281Z" fill="#FCFCFC"/>
<path d="M0.76966 2.31666C0.842542 2.31666 0.901625 2.25758 0.901625 2.1847C0.901625 2.11182 0.842542 2.05273 0.76966 2.05273C0.696778 2.05273 0.637695 2.11182 0.637695 2.1847C0.637695 2.25758 0.696778 2.31666 0.76966 2.31666Z" fill="#FCFCFC"/>
<path d="M0.76966 3.47096C0.842542 3.47096 0.901625 3.41188 0.901625 3.339C0.901625 3.26611 0.842542 3.20703 0.76966 3.20703C0.696778 3.20703 0.637695 3.26611 0.637695 3.339C0.637695 3.41188 0.696778 3.47096 0.76966 3.47096Z" fill="#FCFCFC"/>
<path d="M0.675966 0.170799C0.650893 0.194684 0.637695 0.228863 0.637695 0.264625C0.637695 0.298936 0.650893 0.333248 0.675966 0.356869C0.700908 0.382075 0.733898 0.39659 0.76966 0.39659C0.803971 0.39659 0.838281 0.382075 0.862035 0.356869C0.886976 0.333116 0.901625 0.298936 0.901625 0.264625C0.901625 0.228863 0.887108 0.194684 0.862035 0.170799C0.814528 0.122104 0.724793 0.122104 0.675966 0.170799Z" fill="#FCFCFC"/>
<path d="M6.23809 19.4351C6.21315 19.4588 6.19995 19.493 6.19995 19.5288C6.19995 19.5632 6.21315 19.5974 6.23809 19.6211C6.26197 19.6461 6.29615 19.6607 6.33192 19.6607C6.36623 19.6607 6.40054 19.6462 6.42416 19.6211C6.44923 19.5974 6.46388 19.5632 6.46388 19.5288C6.46388 19.493 6.44936 19.46 6.42416 19.4351C6.37533 19.3862 6.28691 19.3862 6.23809 19.4351Z" fill="#FCFCFC"/>
<path d="M6.33192 16.4539C6.4048 16.4539 6.46388 16.3948 6.46388 16.3219C6.46388 16.249 6.4048 16.1899 6.33192 16.1899C6.25903 16.1899 6.19995 16.249 6.19995 16.3219C6.19995 16.3948 6.25903 16.4539 6.33192 16.4539Z" fill="#FCFCFC"/>
<path d="M6.33192 12.3289C6.4048 12.3289 6.46388 12.2698 6.46388 12.1969C6.46388 12.124 6.4048 12.0649 6.33192 12.0649C6.25903 12.0649 6.19995 12.124 6.19995 12.1969C6.19995 12.2698 6.25903 12.3289 6.33192 12.3289Z" fill="#FCFCFC"/>
<path d="M6.33192 6.56641C6.2592 6.56641 6.19995 6.62434 6.19995 6.69837C6.19995 6.77082 6.2592 6.82901 6.33192 6.82901C6.4045 6.82901 6.46388 6.77082 6.46388 6.69837C6.46388 6.62434 6.4045 6.56641 6.33192 6.56641Z" fill="#FCFCFC"/>
<path d="M6.33192 15.0794C6.4048 15.0794 6.46388 15.0203 6.46388 14.9474C6.46388 14.8745 6.4048 14.8154 6.33192 14.8154C6.25903 14.8154 6.19995 14.8745 6.19995 14.9474C6.19995 15.0203 6.25903 15.0794 6.33192 15.0794Z" fill="#FCFCFC"/>
<path d="M6.33192 17.8294C6.4048 17.8294 6.46388 17.7703 6.46388 17.6974C6.46388 17.6245 6.4048 17.5654 6.33192 17.5654C6.25903 17.5654 6.19995 17.6245 6.19995 17.6974C6.19995 17.7703 6.25903 17.8294 6.33192 17.8294Z" fill="#FCFCFC"/>
<path d="M6.33192 10.9534C6.4048 10.9534 6.46388 10.8943 6.46388 10.8214C6.46388 10.7485 6.4048 10.6895 6.33192 10.6895C6.25903 10.6895 6.19995 10.7485 6.19995 10.8214C6.19995 10.8943 6.25903 10.9534 6.33192 10.9534Z" fill="#FCFCFC"/>
<path d="M6.33192 9.57887C6.4048 9.57887 6.46388 9.51979 6.46388 9.44691C6.46388 9.37402 6.4048 9.31494 6.33192 9.31494C6.25903 9.31494 6.19995 9.37402 6.19995 9.44691C6.19995 9.51979 6.25903 9.57887 6.33192 9.57887Z" fill="#FCFCFC"/>
<path d="M6.33192 7.93994C6.2592 7.93994 6.19995 7.99919 6.19995 8.07323C6.19995 8.14581 6.2592 8.20387 6.33192 8.20387C6.4045 8.20387 6.46388 8.14581 6.46388 8.07323C6.46388 7.99919 6.4045 7.93994 6.33192 7.93994Z" fill="#FCFCFC"/>
<path d="M6.33192 13.7034C6.4048 13.7034 6.46388 13.6443 6.46388 13.5714C6.46388 13.4985 6.4048 13.4395 6.33192 13.4395C6.25903 13.4395 6.19995 13.4985 6.19995 13.5714C6.19995 13.6443 6.25903 13.7034 6.33192 13.7034Z" fill="#FCFCFC"/>
<path d="M1.50862 4.73697C1.4718 4.77392 1.45068 4.82393 1.45068 4.87672C1.45068 4.92832 1.4718 4.97965 1.50862 5.01673C1.54557 5.05355 1.59571 5.07467 1.64863 5.07467C1.69997 5.07467 1.75143 5.05355 1.78852 5.01673C1.82547 4.97978 1.84658 4.92832 1.84658 4.87672C1.84658 4.82393 1.82547 4.77392 1.78852 4.73697C1.71448 4.6632 1.58252 4.6632 1.50862 4.73697Z" fill="#FCFCFC"/>
<path d="M1.64851 2.38271C1.75783 2.38271 1.84646 2.29409 1.84646 2.18476C1.84646 2.07544 1.75783 1.98682 1.64851 1.98682C1.53919 1.98682 1.45056 2.07544 1.45056 2.18476C1.45056 2.29409 1.53919 2.38271 1.64851 2.38271Z" fill="#FCFCFC"/>
<path d="M1.64851 3.53701C1.75783 3.53701 1.84646 3.44838 1.84646 3.33906C1.84646 3.22974 1.75783 3.14111 1.64851 3.14111C1.53919 3.14111 1.45056 3.22974 1.45056 3.33906C1.45056 3.44838 1.53919 3.53701 1.64851 3.53701Z" fill="#FCFCFC"/>
<path d="M1.50862 0.124761C1.4718 0.160392 1.45068 0.211857 1.45068 0.264775C1.45068 0.316242 1.4718 0.367577 1.50862 0.404659C1.54557 0.441609 1.59571 0.462722 1.64863 0.462722C1.69997 0.462722 1.75143 0.441609 1.78852 0.404659C1.82547 0.367709 1.84658 0.316242 1.84658 0.264775C1.84658 0.211989 1.82547 0.161843 1.78852 0.124761C1.71448 0.0508609 1.58252 0.0508609 1.50862 0.124761Z" fill="#FCFCFC"/>
<path d="M7.071 19.389C7.03405 19.4258 7.01294 19.4761 7.01294 19.5289C7.01294 19.5804 7.03405 19.6318 7.071 19.6688C7.10782 19.7057 7.1581 19.7268 7.21089 19.7268C7.26248 19.7268 7.31382 19.7057 7.3509 19.6688C7.38785 19.632 7.40883 19.5804 7.40883 19.5289C7.40883 19.4762 7.38785 19.426 7.3509 19.389C7.27674 19.315 7.14477 19.315 7.071 19.389Z" fill="#FCFCFC"/>
<path d="M7.21052 7.87402C7.10099 7.87402 7.01257 7.96376 7.01257 8.07197C7.01257 8.1815 7.10099 8.27124 7.21052 8.27124C7.32005 8.27124 7.40847 8.1815 7.40847 8.07197C7.40847 7.96363 7.32018 7.87402 7.21052 7.87402Z" fill="#FCFCFC"/>
<path d="M7.21052 6.49854C7.10099 6.49854 7.01257 6.58827 7.01257 6.6978C7.01257 6.80588 7.10099 6.89575 7.21052 6.89575C7.32005 6.89575 7.40847 6.80588 7.40847 6.6978C7.40847 6.58827 7.32018 6.49854 7.21052 6.49854Z" fill="#FCFCFC"/>
<path d="M7.21052 9.64492C7.31984 9.64492 7.40847 9.55629 7.40847 9.44697C7.40847 9.33765 7.31984 9.24902 7.21052 9.24902C7.1012 9.24902 7.01257 9.33765 7.01257 9.44697C7.01257 9.55629 7.1012 9.64492 7.21052 9.64492Z" fill="#FCFCFC"/>
<path d="M7.21052 11.0199C7.31984 11.0199 7.40847 10.9313 7.40847 10.822C7.40847 10.7126 7.31984 10.624 7.21052 10.624C7.1012 10.624 7.01257 10.7126 7.01257 10.822C7.01257 10.9313 7.1012 11.0199 7.21052 11.0199Z" fill="#FCFCFC"/>
<path d="M7.21052 12.3944C7.31984 12.3944 7.40847 12.3058 7.40847 12.1965C7.40847 12.0872 7.31984 11.9985 7.21052 11.9985C7.1012 11.9985 7.01257 12.0872 7.01257 12.1965C7.01257 12.3058 7.1012 12.3944 7.21052 12.3944Z" fill="#FCFCFC"/>
<path d="M7.21052 17.8949C7.31984 17.8949 7.40847 17.8063 7.40847 17.697C7.40847 17.5876 7.31984 17.499 7.21052 17.499C7.1012 17.499 7.01257 17.5876 7.01257 17.697C7.01257 17.8063 7.1012 17.8949 7.21052 17.8949Z" fill="#FCFCFC"/>
<path d="M7.21052 13.7699C7.31984 13.7699 7.40847 13.6813 7.40847 13.572C7.40847 13.4626 7.31984 13.374 7.21052 13.374C7.1012 13.374 7.01257 13.4626 7.01257 13.572C7.01257 13.6813 7.1012 13.7699 7.21052 13.7699Z" fill="#FCFCFC"/>
<path d="M7.21052 16.5204C7.31984 16.5204 7.40847 16.4318 7.40847 16.3225C7.40847 16.2131 7.31984 16.1245 7.21052 16.1245C7.1012 16.1245 7.01257 16.2131 7.01257 16.3225C7.01257 16.4318 7.1012 16.5204 7.21052 16.5204Z" fill="#FCFCFC"/>
<path d="M7.21052 15.1449C7.31984 15.1449 7.40847 15.0563 7.40847 14.947C7.40847 14.8376 7.31984 14.749 7.21052 14.749C7.1012 14.749 7.01257 14.8376 7.01257 14.947C7.01257 15.0563 7.1012 15.1449 7.21052 15.1449Z" fill="#FCFCFC"/>
<path d="M156.443 16.7815V11.2398H150.715V16.7815H147.159V2.98926H150.715V8.1381H156.443V2.98926H160V16.7815H156.443Z" fill="white"/>
<path d="M139.5 17.0301C135.364 17.0301 132.139 14.1352 132.139 9.89615C132.139 5.63646 135.364 2.76221 139.5 2.76221C142.933 2.76221 144.711 4.64391 145.621 6.46358L142.56 7.91105C142.106 6.81511 140.927 5.90528 139.5 5.90528C137.35 5.90528 135.757 7.64223 135.757 9.89615C135.757 12.1501 137.35 13.887 139.5 13.887C140.927 13.887 142.106 12.9772 142.56 11.8812L145.621 13.3287C144.732 15.107 142.933 17.0301 139.5 17.0301Z" fill="white"/>
<path d="M120.665 16.7815V2.98926H130.777V5.98758H124.222V8.28285H130.632V11.3018H124.222V13.7832H130.777V16.7815H120.665Z" fill="white"/>
<path d="M111.569 16.7815V6.09097H107.703V2.98926H118.972V6.09097H115.126V16.7815H111.569Z" fill="white"/>
<path d="M97.9707 16.7815L94.9724 12.1497L91.9741 16.7815H87.7557L92.5737 9.70964L88.0659 2.98926H92.2636L94.9724 7.31098L97.6399 2.98926H101.858L97.371 9.68896L102.168 16.7815H97.9707Z" fill="white"/>
<path d="M83.186 16.7815V2.98926H86.7427V16.7815H83.186Z" fill="white"/>
<path d="M77.2671 16.7815L71.4359 8.44827V16.7815H67.8793V2.98926H71.5393L77.1224 10.9296V2.98926H80.6997V16.7815H77.2671Z" fill="white"/>
<path d="M58.093 16.7815V11.2191L52.8615 2.98926H56.873L59.8713 8.07607L62.8283 2.98926H66.8605L61.6496 11.2191V16.7815H58.093Z" fill="white"/>
<path d="M48.7346 16.7815L46.4187 12.1083H44.599V16.7815H41.0424V2.98926H47.9488C51.0092 2.98926 52.7462 5.01571 52.7462 7.57979C52.7462 9.97845 51.278 11.2605 49.996 11.7154L52.8082 16.7815H48.7346ZM49.1275 7.53844C49.1275 6.58725 48.3417 5.98758 47.4112 5.98758H44.599V9.08929H47.4112C48.3417 9.08929 49.1275 8.48963 49.1275 7.53844Z" fill="white"/>
<path d="M31.9466 16.7815V6.09097H28.0798V2.98926H39.3494V6.09097H35.5033V16.7815H31.9466Z" fill="white"/>
</svg>