<svg width="100" height="32" viewBox="0 0 100 32" fill="none" xmlns="http://www.w3.org/2000/svg">
<path d="M7.89129 20.339C7.34801 20.339 6.85682 20.2459 6.41773 20.0599C5.98609 19.8738 5.64375 19.6059 5.39071 19.2561C5.13768 18.9063 5.00744 18.4933 5 18.017H6.67449C6.69682 18.337 6.80845 18.59 7.00939 18.7761C7.21777 18.9622 7.50057 19.0552 7.8578 19.0552C8.22246 19.0552 8.50899 18.9696 8.71737 18.7984C8.92575 18.6198 9.02994 18.3891 9.02994 18.1063C9.02994 17.8756 8.95924 17.6858 8.81784 17.537C8.67644 17.3881 8.49782 17.2728 8.282 17.1909C8.07362 17.1016 7.78337 17.0049 7.41127 16.9007C6.9052 16.7518 6.49216 16.6067 6.17214 16.4653C5.85957 16.3165 5.58793 16.0969 5.35722 15.8067C5.13396 15.509 5.02233 15.1146 5.02233 14.6234C5.02233 14.162 5.13768 13.7601 5.36839 13.4177C5.5991 13.0754 5.92283 12.8149 6.33959 12.6363C6.75635 12.4503 7.23265 12.3572 7.76849 12.3572C8.57225 12.3572 9.22344 12.5544 9.72206 12.9489C10.2281 13.3359 10.5072 13.8791 10.5593 14.5787H8.84016C8.82528 14.3108 8.70993 14.0913 8.4941 13.9201C8.28572 13.7415 8.00664 13.6522 7.65686 13.6522C7.35173 13.6522 7.10614 13.7303 6.92008 13.8866C6.74147 14.0429 6.65216 14.2699 6.65216 14.5676C6.65216 14.7759 6.71914 14.9508 6.8531 15.0922C6.9945 15.2262 7.16567 15.3378 7.36661 15.4271C7.57499 15.509 7.86524 15.6057 8.23735 15.7174C8.74342 15.8662 9.15646 16.0151 9.47647 16.1639C9.79648 16.3127 10.0718 16.536 10.3026 16.8337C10.5333 17.1314 10.6486 17.5221 10.6486 18.0058C10.6486 18.4226 10.5407 18.8096 10.3249 19.1668C10.1091 19.524 9.79276 19.8106 9.376 20.0264C8.95924 20.2348 8.46433 20.339 7.89129 20.339Z" fill="white"/>
<path d="M20.4988 12.4689V20.2608H18.9359V15.1927L16.8484 20.2608H15.6651L13.5664 15.1927V20.2608H12.0036V12.4689H13.7785L16.2568 18.2626L18.735 12.4689H20.4988Z" fill="white"/>
<path d="M23.6068 13.7303V15.6839H26.2302V16.923H23.6068V18.9882H26.5651V20.2608H22.044V12.4577H26.5651V13.7303H23.6068Z" fill="white"/>
<path d="M30.7315 20.3613C30.1361 20.3613 29.6003 20.231 29.124 19.9706C28.6477 19.7027 28.2719 19.3268 27.9965 18.8431C27.7286 18.3593 27.5946 17.8012 27.5946 17.1686C27.5946 16.536 27.7323 15.9778 28.0077 15.4941C28.2905 15.0104 28.6737 14.6383 29.1575 14.3778C29.6412 14.1099 30.1808 13.9759 30.7762 13.9759C31.3715 13.9759 31.9111 14.1099 32.3948 14.3778C32.8786 14.6383 33.2581 15.0104 33.5335 15.4941C33.8163 15.9778 33.9577 16.536 33.9577 17.1686C33.9577 17.8012 33.8126 18.3593 33.5223 18.8431C33.2395 19.3268 32.8525 19.7027 32.3613 19.9706C31.8776 20.231 31.3343 20.3613 30.7315 20.3613ZM30.7315 18.9994C31.0143 18.9994 31.2785 18.9324 31.5241 18.7984C31.7771 18.657 31.9781 18.4486 32.1269 18.1733C32.2758 17.8979 32.3502 17.563 32.3502 17.1686C32.3502 16.5807 32.1939 16.1304 31.8813 15.8178C31.5762 15.4978 31.2004 15.3378 30.7538 15.3378C30.3073 15.3378 29.9315 15.4978 29.6263 15.8178C29.3287 16.1304 29.1798 16.5807 29.1798 17.1686C29.1798 17.7565 29.3249 18.2105 29.6152 18.5305C29.9129 18.8431 30.285 18.9994 30.7315 18.9994Z" fill="white"/>
<path d="M38.5312 13.9871C39.268 13.9871 39.8634 14.2215 40.3174 14.6903C40.7713 15.1518 40.9983 15.7992 40.9983 16.6328V20.2608H39.4355V16.8449C39.4355 16.3537 39.3127 15.9778 39.0671 15.7174C38.8215 15.4494 38.4866 15.3155 38.0624 15.3155C37.6307 15.3155 37.2884 15.4494 37.0354 15.7174C36.7898 15.9778 36.667 16.3537 36.667 16.8449V20.2608H35.1041V14.0764H36.667V14.8466C36.8753 14.5787 37.1395 14.3703 37.4596 14.2215C37.787 14.0652 38.1442 13.9871 38.5312 13.9871Z" fill="white"/>
<path d="M42.105 16.3537C42.105 15.5871 42.2761 14.9024 42.6185 14.2996C42.9682 13.6894 43.4408 13.2168 44.0362 12.8819C44.639 12.5396 45.3125 12.3684 46.0568 12.3684C46.9275 12.3684 47.6903 12.5917 48.3452 13.0382C49.0001 13.4847 49.4578 14.1024 49.7183 14.8913H47.921C47.7424 14.5192 47.4894 14.2401 47.1619 14.054C46.8419 13.868 46.4698 13.775 46.0456 13.775C45.5916 13.775 45.186 13.8829 44.8288 14.0987C44.479 14.3071 44.2036 14.6048 44.0027 14.9918C43.8092 15.3787 43.7125 15.8327 43.7125 16.3537C43.7125 16.8672 43.8092 17.3212 44.0027 17.7156C44.2036 18.1026 44.479 18.404 44.8288 18.6198C45.186 18.8282 45.5916 18.9324 46.0456 18.9324C46.4698 18.9324 46.8419 18.8394 47.1619 18.6533C47.4894 18.4598 47.7424 18.177 47.921 17.8049H49.7183C49.4578 18.6012 49.0001 19.2226 48.3452 19.6692C47.6978 20.1083 46.9349 20.3278 46.0568 20.3278C45.3125 20.3278 44.639 20.1603 44.0362 19.8255C43.4408 19.4831 42.9682 19.0105 42.6185 18.4077C42.2761 17.8049 42.105 17.1202 42.105 16.3537Z" fill="white"/>
<path d="M52.616 12V20.2608H51.0532V12H52.616Z" fill="white"/>
<path d="M56.9063 20.3613C56.3109 20.3613 55.7751 20.231 55.2988 19.9706C54.8225 19.7027 54.4467 19.3268 54.1713 18.8431C53.9034 18.3593 53.7694 17.8012 53.7694 17.1686C53.7694 16.536 53.9071 15.9778 54.1825 15.4941C54.4653 15.0104 54.8486 14.6383 55.3323 14.3778C55.816 14.1099 56.3556 13.9759 56.951 13.9759C57.5463 13.9759 58.0859 14.1099 58.5696 14.3778C59.0534 14.6383 59.4329 15.0104 59.7083 15.4941C59.9911 15.9778 60.1325 16.536 60.1325 17.1686C60.1325 17.8012 59.9874 18.3593 59.6971 18.8431C59.4143 19.3268 59.0273 19.7027 58.5361 19.9706C58.0524 20.231 57.5091 20.3613 56.9063 20.3613ZM56.9063 18.9994C57.1891 18.9994 57.4533 18.9324 57.6989 18.7984C57.9519 18.657 58.1529 18.4486 58.3017 18.1733C58.4506 17.8979 58.525 17.563 58.525 17.1686C58.525 16.5807 58.3687 16.1304 58.0561 15.8178C57.751 15.4978 57.3752 15.3378 56.9286 15.3378C56.4821 15.3378 56.1063 15.4978 55.8011 15.8178C55.5035 16.1304 55.3546 16.5807 55.3546 17.1686C55.3546 17.7565 55.4997 18.2105 55.79 18.5305C56.0877 18.8431 56.4598 18.9994 56.9063 18.9994Z" fill="white"/>
<path d="M67.1173 14.0764V20.2608H65.5433V19.4794C65.3423 19.7473 65.0781 19.9594 64.7507 20.1157C64.4307 20.2645 64.0809 20.339 63.7013 20.339C63.2176 20.339 62.7897 20.2385 62.4176 20.0376C62.0455 19.8292 61.7515 19.5278 61.5357 19.1333C61.3273 18.7315 61.2231 18.2552 61.2231 17.7044V14.0764H62.786V17.4812C62.786 17.9723 62.9087 18.3519 63.1543 18.6198C63.3999 18.8803 63.7348 19.0105 64.159 19.0105C64.5907 19.0105 64.9293 18.8803 65.1749 18.6198C65.4205 18.3519 65.5433 17.9723 65.5433 17.4812V14.0764H67.1173Z" fill="white"/>
<path d="M68.2574 17.1463C68.2574 16.5211 68.3802 15.9667 68.6258 15.4829C68.8789 14.9992 69.2212 14.6271 69.6528 14.3666C70.0845 14.1061 70.5645 13.9759 71.0929 13.9759C71.4948 13.9759 71.8781 14.0652 72.2427 14.2438C72.6074 14.415 72.8976 14.6457 73.1135 14.9359V12H74.6986V20.2608H73.1135V19.3454C72.92 19.6506 72.6483 19.8962 72.2985 20.0822C71.9488 20.2683 71.5432 20.3613 71.0817 20.3613C70.5608 20.3613 70.0845 20.2273 69.6528 19.9594C69.2212 19.6915 68.8789 19.3157 68.6258 18.8319C68.3802 18.3407 68.2574 17.7789 68.2574 17.1463ZM73.1246 17.1686C73.1246 16.789 73.0502 16.4653 72.9014 16.1974C72.7525 15.922 72.5516 15.7136 72.2985 15.5722C72.0455 15.4234 71.7739 15.349 71.4836 15.349C71.1934 15.349 70.9255 15.4197 70.6799 15.5611C70.4343 15.7025 70.2333 15.9109 70.077 16.1862C69.9282 16.4541 69.8538 16.7742 69.8538 17.1463C69.8538 17.5184 69.9282 17.8458 70.077 18.1286C70.2333 18.404 70.4343 18.6161 70.6799 18.7649C70.9329 18.9138 71.2008 18.9882 71.4836 18.9882C71.7739 18.9882 72.0455 18.9175 72.2985 18.7761C72.5516 18.6273 72.7525 18.4189 72.9014 18.151C73.0502 17.8756 73.1246 17.5481 73.1246 17.1686Z" fill="white"/>
<path d="M77.7879 13.7303V15.6839H80.4113V16.923H77.7879V18.9882H80.7462V20.2608H76.225V12.4577H80.7462V13.7303H77.7879Z" fill="white"/>
<path d="M86.1852 20.2608L84.4661 17.2244H83.7293V20.2608H82.1664V12.4689H85.0912C85.694 12.4689 86.2075 12.5768 86.6317 12.7926C87.0559 13.001 87.3722 13.2875 87.5806 13.6522C87.7964 14.0094 87.9043 14.4113 87.9043 14.8578C87.9043 15.3713 87.7555 15.8364 87.4578 16.2532C87.1601 16.6625 86.7173 16.9453 86.1294 17.1016L87.9937 20.2608H86.1852ZM83.7293 16.0523H85.0354C85.4596 16.0523 85.7759 15.9518 85.9843 15.7509C86.1926 15.5425 86.2968 15.256 86.2968 14.8913C86.2968 14.5341 86.1926 14.2587 85.9843 14.0652C85.7759 13.8643 85.4596 13.7638 85.0354 13.7638H83.7293V16.0523Z" fill="white"/>
<path d="M95 14.8801C95 15.2969 94.8995 15.6876 94.6986 16.0523C94.5051 16.4169 94.1962 16.7109 93.772 16.9342C93.3553 17.1574 92.8269 17.2691 92.1869 17.2691H90.8808V20.2608H89.3179V12.4689H92.1869C92.7897 12.4689 93.3032 12.573 93.7274 12.7814C94.1516 12.9898 94.4679 13.2763 94.6763 13.641C94.8921 14.0057 95 14.4187 95 14.8801ZM92.1199 16.0076C92.5515 16.0076 92.8715 15.9109 93.0799 15.7174C93.2883 15.5164 93.3925 15.2373 93.3925 14.8801C93.3925 14.121 92.9683 13.7415 92.1199 13.7415H90.8808V16.0076H92.1199Z" fill="white"/>
</svg>
