<svg width="100" height="32" viewBox="0 0 100 32" fill="none" xmlns="http://www.w3.org/2000/svg">
<path d="M72.4509 23.611V9.99675H75.5619V12.2658H75.7037C75.9519 11.4799 76.3774 10.8742 76.9801 10.4488C77.5887 10.0174 78.283 9.80176 79.063 9.80176C79.2402 9.80176 79.4382 9.81062 79.6568 9.82835C79.8814 9.84017 80.0675 9.86085 80.2152 9.89039V12.8419C80.0793 12.7946 79.8636 12.7533 79.5682 12.7178C79.2787 12.6765 78.998 12.6558 78.7262 12.6558C78.1412 12.6558 77.6153 12.7828 77.1485 13.0369C76.6876 13.2851 76.3242 13.6308 76.0583 14.0739C75.7924 14.5171 75.6594 15.0282 75.6594 15.6073V23.611H72.4509Z" fill="white"/>
<path d="M65.9362 28.7159V21.4656H65.8033C65.6378 21.7965 65.3985 22.1481 65.0854 22.5204C64.7722 22.8867 64.3586 23.1999 63.8445 23.4599C63.3304 23.7199 62.6834 23.8499 61.9034 23.8499C60.8339 23.8499 59.8766 23.5751 59.0316 23.0256C58.1867 22.4761 57.519 21.6783 57.0285 20.6325C56.5381 19.5866 56.2928 18.3162 56.2928 16.8212C56.2928 15.3085 56.541 14.0322 57.0374 12.9922C57.5396 11.9463 58.2162 11.1575 59.0671 10.6257C59.918 10.0879 60.8664 9.81909 61.9123 9.81909C62.71 9.81909 63.3659 9.955 63.8799 10.2268C64.394 10.4927 64.8017 10.8147 65.1031 11.1929C65.4044 11.5652 65.6378 11.9168 65.8033 12.2477H65.9983V9.99636H69.1537V28.7159H65.9362ZM62.7986 21.2174C63.4781 21.2174 64.0572 21.0343 64.5358 20.6679C65.0144 20.2957 65.3779 19.7786 65.626 19.1168C65.8742 18.455 65.9983 17.6839 65.9983 16.8035C65.9983 15.923 65.8742 15.1578 65.626 14.5078C65.3838 13.8579 65.0233 13.3526 64.5447 12.9922C64.072 12.6317 63.4899 12.4515 62.7986 12.4515C62.0836 12.4515 61.4868 12.6377 61.0082 13.0099C60.5296 13.3822 60.1691 13.8963 59.9268 14.5522C59.6846 15.208 59.5634 15.9585 59.5634 16.8035C59.5634 17.6544 59.6846 18.4137 59.9268 19.0814C60.175 19.7432 60.5384 20.2661 61.017 20.6502C61.5016 21.0284 62.0954 21.2174 62.7986 21.2174Z" fill="white"/>
<path d="M47.6045 23.8765C46.275 23.8765 45.1228 23.584 44.1478 22.999C43.1728 22.414 42.4165 21.5956 41.8788 20.5438C41.347 19.492 41.0811 18.263 41.0811 16.8566C41.0811 15.4503 41.347 14.2183 41.8788 13.1606C42.4165 12.1029 43.1728 11.2816 44.1478 10.6966C45.1228 10.1116 46.275 9.81909 47.6045 9.81909C48.934 9.81909 50.0863 10.1116 51.0613 10.6966C52.0362 11.2816 52.7896 12.1029 53.3214 13.1606C53.8591 14.2183 54.128 15.4503 54.128 16.8566C54.128 18.263 53.8591 19.492 53.3214 20.5438C52.7896 21.5956 52.0362 22.414 51.0613 22.999C50.0863 23.584 48.934 23.8765 47.6045 23.8765ZM47.6223 21.3061C48.3431 21.3061 48.9459 21.1081 49.4304 20.7122C49.9149 20.3104 50.2754 19.7727 50.5117 19.0991C50.754 18.4255 50.8751 17.675 50.8751 16.8478C50.8751 16.0146 50.754 15.2612 50.5117 14.5876C50.2754 13.9081 49.9149 13.3674 49.4304 12.9656C48.9459 12.5638 48.3431 12.3629 47.6223 12.3629C46.8836 12.3629 46.2691 12.5638 45.7787 12.9656C45.2941 13.3674 44.9307 13.9081 44.6885 14.5876C44.4521 15.2612 44.3339 16.0146 44.3339 16.8478C44.3339 17.675 44.4521 18.4255 44.6885 19.0991C44.9307 19.7727 45.2941 20.3104 45.7787 20.7122C46.2691 21.1081 46.8836 21.3061 47.6223 21.3061Z" fill="white"/>
<path d="M38.3666 5.45801V23.6103H35.158V5.45801H38.3666Z" fill="white"/>
<path d="M25.4792 28.9995C24.3269 28.9995 23.3372 28.8429 22.5099 28.5298C21.6827 28.2225 21.0179 27.8089 20.5156 27.2889C20.0134 26.7689 19.6648 26.1928 19.4698 25.5605L22.3592 24.8603C22.4892 25.1262 22.6783 25.3892 22.9265 25.6492C23.1747 25.9151 23.5085 26.1337 23.9281 26.305C24.3535 26.4823 24.8883 26.5709 25.5323 26.5709C26.4423 26.5709 27.1957 26.3494 27.7925 25.9062C28.3893 25.4689 28.6877 24.748 28.6877 23.7435V21.1643H28.5282C28.3627 21.4952 28.1205 21.8349 27.8014 22.1836C27.4882 22.5322 27.0716 22.8247 26.5516 23.061C26.0376 23.2974 25.3905 23.4156 24.6105 23.4156C23.5647 23.4156 22.6163 23.1704 21.7654 22.6799C20.9204 22.1836 20.2468 21.4449 19.7445 20.4641C19.2482 19.4773 19 18.2423 19 16.7591C19 15.2642 19.2482 14.0026 19.7445 12.9745C20.2468 11.9404 20.9234 11.1575 21.7742 10.6257C22.6251 10.0879 23.5735 9.81909 24.6194 9.81909C25.4171 9.81909 26.073 9.955 26.5871 10.2268C27.1071 10.4927 27.5207 10.8147 27.828 11.1929C28.1352 11.5652 28.3686 11.9168 28.5282 12.2477H28.7054V9.99636H31.8697V23.8322C31.8697 24.9962 31.592 25.9594 31.0365 26.7216C30.4811 27.4839 29.7218 28.0541 28.7586 28.4323C27.7955 28.8104 26.7023 28.9995 25.4792 28.9995ZM25.5057 20.8984C26.1853 20.8984 26.7644 20.7329 27.243 20.402C27.7216 20.0711 28.085 19.5954 28.3332 18.975C28.5814 18.3546 28.7054 17.61 28.7054 16.7414C28.7054 15.8846 28.5814 15.1342 28.3332 14.4901C28.0909 13.846 27.7305 13.3467 27.2518 12.9922C26.7791 12.6317 26.1971 12.4515 25.5057 12.4515C24.7908 12.4515 24.194 12.6377 23.7153 13.0099C23.2367 13.3822 22.8763 13.8933 22.634 14.5433C22.3917 15.1874 22.2706 15.9201 22.2706 16.7414C22.2706 17.5746 22.3917 18.3043 22.634 18.9307C22.8822 19.5511 23.2456 20.0357 23.7242 20.3843C24.2087 20.727 24.8026 20.8984 25.5057 20.8984Z" fill="white"/>
<path d="M77.7215 6.97111V5.11401H78.349C78.4941 5.11401 78.6132 5.1388 78.7063 5.18837C78.7994 5.23734 78.8683 5.30474 78.913 5.39058C78.9577 5.47643 78.9801 5.57406 78.9801 5.68348C78.9801 5.79289 78.9577 5.88992 78.913 5.97455C78.8683 6.05919 78.7997 6.12568 78.7072 6.17405C78.6147 6.2218 78.4965 6.24568 78.3526 6.24568H77.8448V6.04256H78.3454C78.4445 6.04256 78.5243 6.02805 78.5848 5.99904C78.6458 5.97002 78.6899 5.92891 78.7171 5.87571C78.745 5.82191 78.7589 5.75783 78.7589 5.68348C78.7589 5.60912 78.745 5.54413 78.7171 5.48852C78.6893 5.4329 78.6449 5.38998 78.5838 5.35975C78.5228 5.32892 78.4421 5.31351 78.3417 5.31351H77.9464V6.97111H77.7215ZM78.5956 6.13687L79.0527 6.97111H78.7915L78.3417 6.13687H78.5956Z" fill="white"/>
<circle cx="78.2786" cy="6.22852" r="2.06317" stroke="white" stroke-width="0.330683"/>
</svg>
